<svg fill="#718096" viewBox="0 0 1086 1024" version="1.1" xmlns="http://www.w3.org/2000/svg" p-id="3302" xmlns:xlink="http://www.w3.org/1999/xlink"><path d="M71.161 460.995l433.669 465.623c22.824 18.26 41.084 18.26 68.474 0l429.104-465.623c22.824-22.824 13.695-50.214-4.565-59.345-13.695-4.565-31.955-4.565-45.65 13.695l-397.149 424.539c-4.565 9.13-27.389 9.13-31.955 0l-397.149-424.539c-13.695-18.261-31.955-18.261-45.65-13.695-18.26 9.13-27.389 36.519-9.13 59.345zM135.070 100.365l369.76 397.149c22.824 22.824 41.084 22.824 68.474 0l369.76-397.149c18.261-22.824 9.13-50.214-9.13-54.78-13.695-4.565-27.389-4.565-45.65 9.13l-333.241 356.065c-4.565 9.13-27.389 9.13-31.955 4.565l-333.241-360.63c-18.261-13.695-31.955-13.695-45.65-9.13-18.26 4.565-27.389 31.955-9.13 54.78z" p-id="3303"></path></svg>